<svg width="92" height="18" viewBox="0 0 92 18" fill="none" xmlns="http://www.w3.org/2000/svg">
<path fill-rule="evenodd" clip-rule="evenodd" d="M39.7124 0.515835C39.1024 0.791877 38.7214 1.41102 38.75 2.07997L38.77 2.08997C38.7752 2.51256 38.9495 2.91544 39.2539 3.20859C39.5584 3.50173 39.9675 3.6607 40.39 3.64997C41.0596 3.64936 41.6615 3.24179 41.9107 2.62033C42.1599 1.99886 42.0063 1.28833 41.5226 0.825312C41.039 0.362297 40.3224 0.239794 39.7124 0.515835ZM3.72001 1.25997H0.51001V14.26H3.72001V1.25997ZM10 4.21997C7.00001 4.21997 5.00001 6.14997 5.00001 9.36997C5.00001 12.66 6.93001 14.54 10 14.54C13.07 14.54 15 12.59 15 9.36997C15 6.14997 13 4.21997 10 4.21997ZM11.82 9.36997C11.82 7.59997 11.13 6.55997 10.03 6.55997C8.93001 6.55997 8.25001 7.55997 8.25001 9.36997C8.25001 11.18 8.93001 12.17 10.03 12.17C11.13 12.17 11.84 11.18 11.84 9.37997L11.82 9.36997ZM19.38 14.93H16.28L16.3 14.94C16.48 16.73 18.26 18 21.04 18.01C24.1 18.01 26.18 16.54 26.18 14.19V4.44997H23V6.06273C22.4571 4.97577 21.3169 4.30433 20.09 4.36997C17.58 4.36997 16.09 6.28997 16.09 9.36997C16.09 12.45 17.65 14.24 20 14.24C21.2579 14.3322 22.4432 13.6457 22.99 12.5109V14.29C22.99 15.27 22.35 15.93 21.12 15.93C20.3814 16.0247 19.67 15.6159 19.38 14.93ZM23 9.36997C23 7.79997 22.28 6.80997 21.14 6.80997C20 6.80997 19.3 7.80997 19.3 9.36997C19.3 10.93 19.99 11.85 21.14 11.85C22.29 11.85 23 11 23 9.36997ZM32.45 4.21997C29.45 4.21997 27.45 6.14997 27.45 9.36997H27.47C27.47 12.66 29.39 14.54 32.45 14.54C35.51 14.54 37.45 12.59 37.45 9.36997C37.45 6.14997 35.45 4.21997 32.45 4.21997ZM34.27 9.36997C34.27 7.59997 33.57 6.55997 32.48 6.55997C31.39 6.55997 30.7 7.55997 30.7 9.36997C30.7 11.18 31.38 12.17 32.48 12.17C33.58 12.17 34.29 11.18 34.29 9.37997L34.27 9.36997ZM38.75 4.43997H42V14.3H38.8L38.75 4.43997ZM49.8 14.44C52.25 14.44 53.69 12.58 53.69 9.36997L53.75 9.37997C53.75 6.15997 52.3 4.30997 49.78 4.32997C48.4796 4.26809 47.2799 5.0279 46.78 6.22997H46.72V4.46997H43.53V17.47H46.74V12.61H46.8C47.3175 13.7886 48.5153 14.5192 49.8 14.44ZM50.42 9.36997C50.42 7.80997 49.69 6.79997 48.56 6.79997C47.43 6.79997 46.72 7.79997 46.71 9.36997C46.7 10.94 47.43 11.93 48.56 11.93C49.69 11.93 50.48 11 50.48 9.37997L50.42 9.36997ZM63.55 7.51997C63.53 5.47997 61.86 4.20997 59.17 4.20997L59.23 4.21997C56.52 4.21997 54.84 5.46997 54.78 7.42997C54.78 8.93997 55.79 9.94997 57.72 10.36L59.58 10.75C60.35 10.91 60.65 11 60.65 11.53C60.65 12.06 60.21 12.36 59.27 12.36C58.33 12.36 57.75 11.93 57.66 11.2H54.55C54.68 13.21 56.47 14.53 59.22 14.53C61.97 14.53 63.82 13.17 63.82 11.17C63.82 9.67997 63.02 8.87997 61.02 8.45997L58.96 8.03997C58.22 7.88997 57.85 7.72997 57.85 7.21997C57.85 6.70997 58.27 6.36997 59.15 6.36997C60.03 6.36997 60.62 6.80997 60.62 7.51997H63.55ZM74.57 14.29H71.46V12.44H71.4C71.0414 13.7111 69.8487 14.563 68.53 14.49C67.5524 14.5218 66.6077 14.1347 65.9335 13.4261C65.2593 12.7175 64.9196 11.7548 65 10.78V4.44997H68.21V10.09C68.21 11.25 68.82 11.88 69.82 11.88C70.2947 11.8764 70.7446 11.6673 71.0533 11.3068C71.3621 10.9462 71.4995 10.4696 71.43 9.99997V4.44997H74.63L74.57 14.29ZM79.24 4.43997H76.12L76.14 14.3H79.35V8.47997C79.2981 8.07063 79.4255 7.6588 79.6995 7.3503C79.9735 7.0418 80.3674 6.86669 80.78 6.86997C81.66 6.86997 82.15 7.39997 82.15 8.39997V14.3H85.21V8.45997C85.1545 8.05527 85.2785 7.64653 85.5496 7.3409C85.8206 7.03528 86.2116 6.86327 86.62 6.86997C87.53 6.86997 88 7.42997 88 8.42997V14.3H91.23V7.60997C91.2962 6.72395 90.9814 5.85175 90.3647 5.21214C89.748 4.57253 88.8879 4.22618 88 4.25997C86.642 4.19639 85.4109 5.05402 85 6.34997H84.86C84.6225 5.05084 83.4357 4.14558 82.12 4.25997C80.8193 4.23347 79.6646 5.08821 79.31 6.33997H79.24V4.43997Z" fill="#696871"/>
</svg>
